# Rhino

mtllib CBE climate chamber_ceiling panel.mtl
o object_1
usemtl diffuse_0
v 4890 2500 1220
v 4890 2500 610
v 5500 2500 1220
v 5500 2500 610
vt 0 0
vt 0 1
vt 1 0
vt 1 1
vn 0 1 0
vn 0 1 0
vn 0 1 0
vn 0 1 0
f 4/4/4 2/2/2 1/1/1 3/3/3
o object_2
usemtl diffuse_0
v 4890 2500 1830
v 4890 2500 1220
v 5500 2500 1830
v 5500 2500 1220
vt 0 0
vt 0 1
vt 1 0
vt 1 1
vn 0 1 0
vn 0 1 0
vn 0 1 0
vn 0 1 0
f 8/8/8 6/6/6 5/5/5 7/7/7
o object_3
usemtl diffuse_0
v 4890 2500 5490
v 4890 2500 4880
v 5500 2500 5490
v 5500 2500 4880
vt 0 0
vt 0 1
vt 1 0
vt 1 1
vn 0 1 0
vn 0 1 0
vn 0 1 0
vn 0 1 0
f 12/12/12 10/10/10 9/9/9 11/11/11
o object_4
usemtl diffuse_0
v 620 2500 1830
v 620 2500 1220
v 1230 2500 1830
v 1230 2500 1220
vt 0 0
vt 0 1
vt 1 0
vt 1 1
vn 0 1 0
vn 0 1 0
vn 0 1 0
vn 0 1 0
f 16/16/16 14/14/14 13/13/13 15/15/15
o object_5
usemtl diffuse_0
v 620 2500 1220
v 620 2500 610
v 1230 2500 1220
v 1230 2500 610
vt 0 0
vt 0 1
vt 1 0
vt 1 1
vn 0 1 0
vn 0 1 0
vn 0 1 0
vn 0 1 0
f 20/20/20 18/18/18 17/17/17 19/19/19
o object_6
usemtl diffuse_0
v 1230 2500 1220
v 1230 2500 610
v 1840 2500 1220
v 1840 2500 610
vt 0 0
vt 0 1
vt 1 0
vt 1 1
vn 0 1 0
vn 0 1 0
vn 0 1 0
vn 0 1 0
f 24/24/24 22/22/22 21/21/21 23/23/23
o object_7
usemtl diffuse_0
v 3670 2500 1220
v 3670 2500 610
v 4280 2500 1220
v 4280 2500 610
vt 0 0
vt 0 1
vt 1 0
vt 1 1
vn 0 1 0
vn 0 1 0
vn 0 1 0
vn 0 1 0
f 28/28/28 26/26/26 25/25/25 27/27/27
o object_8
usemtl diffuse_0
v 4280 2500 1220
v 4280 2500 610
v 4890 2500 1220
v 4890 2500 610
vt 0 0
vt 0 1
vt 1 0
vt 1 1
vn 0 1 0
vn 0 1 0
vn 0 1 0
vn 0 1 0
f 32/32/32 30/30/30 29/29/29 31/31/31
o object_9
usemtl diffuse_0
v 3670 2500 1830
v 3670 2500 1220
v 4280 2500 1830
v 4280 2500 1220
vt 0 0
vt 0 1
vt 1 0
vt 1 1
vn 0 1 0
vn 0 1 0
vn 0 1 0
vn 0 1 0
f 36/36/36 34/34/34 33/33/33 35/35/35
o object_10
usemtl diffuse_0
v 2450 2500 2440
v 2450 2500 1830
v 3060 2500 2440
v 3060 2500 1830
vt 0 0
vt 0 1
vt 1 0
vt 1 1
vn 0 1 0
vn 0 1 0
vn 0 1 0
vn 0 1 0
f 40/40/40 38/38/38 37/37/37 39/39/39
o object_11
usemtl diffuse_0
v 2450 2500 3660
v 2450 2500 3050
v 3060 2500 3660
v 3060 2500 3050
vt 0 0
vt 0 1
vt 1 0
vt 1 1
vn 0 1 0
vn 0 1 0
vn 0 1 0
vn 0 1 0
f 44/44/44 42/42/42 41/41/41 43/43/43
o object_12
usemtl diffuse_0
v 2450 2500 4270
v 2450 2500 3660
v 3060 2500 4270
v 3060 2500 3660
vt 0 0
vt 0 1
vt 1 0
vt 1 1
vn 0 1 0
vn 0 1 0
vn 0 1 0
vn 0 1 0
f 48/48/48 46/46/46 45/45/45 47/47/47
o object_13
usemtl diffuse_0
v 620 2500 4880
v 620 2500 4270
v 1230 2500 4880
v 1230 2500 4270
vt 0 0
vt 0 1
vt 1 0
vt 1 1
vn 0 1 0
vn 0 1 0
vn 0 1 0
vn 0 1 0
f 52/52/52 50/50/50 49/49/49 51/51/51
o object_14
usemtl diffuse_0
v 620 2500 5490
v 620 2500 4880
v 1230 2500 5490
v 1230 2500 4880
vt 0 0
vt 0 1
vt 1 0
vt 1 1
vn 0 1 0
vn 0 1 0
vn 0 1 0
vn 0 1 0
f 56/56/56 54/54/54 53/53/53 55/55/55
o object_15
usemtl diffuse_0
v 1230 2500 5490
v 1230 2500 4880
v 1840 2500 5490
v 1840 2500 4880
vt 0 0
vt 0 1
vt 1 0
vt 1 1
vn 0 1 0
vn 0 1 0
vn 0 1 0
vn 0 1 0
f 60/60/60 58/58/58 57/57/57 59/59/59
o object_16
usemtl diffuse_0
v 3670 2500 4880
v 3670 2500 4270
v 4280 2500 4880
v 4280 2500 4270
vt 0 0
vt 0 1
vt 1 0
vt 1 1
vn 0 1 0
vn 0 1 0
vn 0 1 0
vn 0 1 0
f 64/64/64 62/62/62 61/61/61 63/63/63
o object_17
usemtl diffuse_0
v 3670 2500 5490
v 3670 2500 4880
v 4280 2500 5490
v 4280 2500 4880
vt 0 0
vt 0 1
vt 1 0
vt 1 1
vn 0 1 0
vn 0 1 0
vn 0 1 0
vn 0 1 0
f 68/68/68 66/66/66 65/65/65 67/67/67
o object_18
usemtl diffuse_0
v 4280 2500 5490
v 4280 2500 4880
v 4890 2500 5490
v 4890 2500 4880
vt 0 0
vt 0 1
vt 1 0
vt 1 1
vn 0 1 0
vn 0 1 0
vn 0 1 0
vn 0 1 0
f 72/72/72 70/70/70 69/69/69 71/71/71
o object_19
usemtl diffuse_0
v 4890 2500 4880
v 4890 2500 4270
v 5500 2500 4880
v 5500 2500 4270
vt 0 0
vt 0 1
vt 1 0
vt 1 1
vn 0 1 0
vn 0 1 0
vn 0 1 0
vn 0 1 0
f 76/76/76 74/74/74 73/73/73 75/75/75
o object_20
usemtl diffuse_0
v 4890 2500 4270
v 4890 2500 3660
v 5500 2500 4270
v 5500 2500 3660
vt 0 0
vt 0 1
vt 1 0
vt 1 1
vn 0 1 0
vn 0 1 0
vn 0 1 0
vn 0 1 0
f 80/80/80 78/78/78 77/77/77 79/79/79
o object_21
usemtl diffuse_0
v 4890 2500 3660
v 4890 2500 3050
v 5500 2500 3660
v 5500 2500 3050
vt 0 0
vt 0 1
vt 1 0
vt 1 1
vn 0 1 0
vn 0 1 0
vn 0 1 0
vn 0 1 0
f 84/84/84 82/82/82 81/81/81 83/83/83
o object_22
usemtl diffuse_0
v 4890 2500 3050
v 4890 2500 2440
v 5500 2500 3050
v 5500 2500 2440
vt 0 0
vt 0 1
vt 1 0
vt 1 1
vn 0 1 0
vn 0 1 0
vn 0 1 0
vn 0 1 0
f 88/88/88 86/86/86 85/85/85 87/87/87
o object_23
usemtl diffuse_0
v 4890 2500 2440
v 4890 2500 1830
v 5500 2500 2440
v 5500 2500 1830
vt 0 0
vt 0 1
vt 1 0
vt 1 1
vn 0 1 0
vn 0 1 0
vn 0 1 0
vn 0 1 0
f 92/92/92 90/90/90 89/89/89 91/91/91
o object_24
usemtl diffuse_0
v 4890 2500 610
v 4890 2500 -9.6694138846942224E-06
v 5500 2500 610
v 5500 2500 -9.6694138846942224E-06
vt 0 0
vt 0 1
vt 1 0
vt 1 1
vn 0 1 0
vn 0 1 0
vn 0 1 0
vn 0 1 0
f 96/96/96 94/94/94 93/93/93 95/95/95
o object_25
usemtl diffuse_0
v 4280 2500 610
v 4280 2500 -9.6694138846942224E-06
v 4890 2500 610
v 4890 2500 -9.6694138846942224E-06
vt 0 0
vt 0 1
vt 1 0
vt 1 1
vn 0 1 0
vn 0 1 0
vn 0 1 0
vn 0 1 0
f 100/100/100 98/98/98 97/97/97 99/99/99
o object_26
usemtl diffuse_0
v 3670 2500 610
v 3670 2500 -9.6694138846942224E-06
v 4280 2500 610
v 4280 2500 -9.6694138846942224E-06
vt 0 0
vt 0 1
vt 1 0
vt 1 1
vn 0 1 0
vn 0 1 0
vn 0 1 0
vn 0 1 0
f 104/104/104 102/102/102 101/101/101 103/103/103
o object_27
usemtl diffuse_0
v 3060 2500 610
v 3060 2500 -9.6694138846942224E-06
v 3670 2500 610
v 3670 2500 -9.6694138846942224E-06
vt 0 0
vt 0 1
vt 1 0
vt 1 1
vn 0 1 0
vn 0 1 0
vn 0 1 0
vn 0 1 0
f 108/108/108 106/106/106 105/105/105 107/107/107
o object_28
usemtl diffuse_0
v 2450 2500 610
v 2450 2500 -9.6694138846942224E-06
v 3060 2500 610
v 3060 2500 -9.6694138846942224E-06
vt 0 0
vt 0 1
vt 1 0
vt 1 1
vn 0 1 0
vn 0 1 0
vn 0 1 0
vn 0 1 0
f 112/112/112 110/110/110 109/109/109 111/111/111
o object_29
usemtl diffuse_0
v 1840 2500 610
v 1840 2500 -9.6694138846942224E-06
v 2450 2500 610
v 2450 2500 -9.6694138846942224E-06
vt 0 0
vt 0 1
vt 1 0
vt 1 1
vn 0 1 0
vn 0 1 0
vn 0 1 0
vn 0 1 0
f 116/116/116 114/114/114 113/113/113 115/115/115
o object_30
usemtl diffuse_0
v 1230 2500 610
v 1230 2500 -9.6694138846942224E-06
v 1840 2500 610
v 1840 2500 -9.6694138846942224E-06
vt 0 0
vt 0 1
vt 1 0
vt 1 1
vn 0 1 0
vn 0 1 0
vn 0 1 0
vn 0 1 0
f 120/120/120 118/118/118 117/117/117 119/119/119
o object_31
usemtl diffuse_0
v 620 2500 610
v 620 2500 -9.6694138846942224E-06
v 1230 2500 610
v 1230 2500 -9.6694138846942224E-06
vt 0 0
vt 0 1
vt 1 0
vt 1 1
vn 0 1 0
vn 0 1 0
vn 0 1 0
vn 0 1 0
f 124/124/124 122/122/122 121/121/121 123/123/123
o object_32
usemtl diffuse_0
v 10.000006675720215 2500 610
v 10.000006675720215 2500 -9.6694138846942224E-06
v 620 2500 610
v 620 2500 -9.6694138846942224E-06
vt 0 0
vt 0 1
vt 1 0
vt 1 1
vn 0 1 0
vn 0 1 0
vn 0 1 0
vn 0 1 0
f 128/128/128 126/126/126 125/125/125 127/127/127
o object_33
usemtl diffuse_0
v 10.000006675720215 2500 1220
v 10.000006675720215 2500 610
v 620 2500 1220
v 620 2500 610
vt 0 0
vt 0 1
vt 1 0
vt 1 1
vn 0 1 0
vn 0 1 0
vn 0 1 0
vn 0 1 0
f 132/132/132 130/130/130 129/129/129 131/131/131
o object_34
usemtl diffuse_0
v 10.000006675720215 2500 1830
v 10.000006675720215 2500 1220
v 620 2500 1830
v 620 2500 1220
vt 0 0
vt 0 1
vt 1 0
vt 1 1
vn 0 1 0
vn 0 1 0
vn 0 1 0
vn 0 1 0
f 136/136/136 134/134/134 133/133/133 135/135/135
o object_35
usemtl diffuse_0
v 10.000006675720215 2500 2440
v 10.000006675720215 2500 1830
v 620 2500 2440
v 620 2500 1830
vt 0 0
vt 0 1
vt 1 0
vt 1 1
vn 0 1 0
vn 0 1 0
vn 0 1 0
vn 0 1 0
f 140/140/140 138/138/138 137/137/137 139/139/139
o object_36
usemtl diffuse_0
v 10.000006675720215 2500 3050
v 10.000006675720215 2500 2440
v 620 2500 3050
v 620 2500 2440
vt 0 0
vt 0 1
vt 1 0
vt 1 1
vn 0 1 0
vn 0 1 0
vn 0 1 0
vn 0 1 0
f 144/144/144 142/142/142 141/141/141 143/143/143
o object_37
usemtl diffuse_0
v 10.000006675720215 2500 3660
v 10.000006675720215 2500 3050
v 620 2500 3660
v 620 2500 3050
vt 0 0
vt 0 1
vt 1 0
vt 1 1
vn 0 1 0
vn 0 1 0
vn 0 1 0
vn 0 1 0
f 148/148/148 146/146/146 145/145/145 147/147/147
o object_38
usemtl diffuse_0
v 10.000006675720215 2500 4270
v 10.000006675720215 2500 3660
v 620 2500 4270
v 620 2500 3660
vt 0 0
vt 0 1
vt 1 0
vt 1 1
vn 0 1 0
vn 0 1 0
vn 0 1 0
vn 0 1 0
f 152/152/152 150/150/150 149/149/149 151/151/151
o object_39
usemtl diffuse_0
v 10.000006675720215 2500 4880
v 10.000006675720215 2500 4270
v 620 2500 4880
v 620 2500 4270
vt 0 0
vt 0 1
vt 1 0
vt 1 1
vn 0 1 0
vn 0 1 0
vn 0 1 0
vn 0 1 0
f 156/156/156 154/154/154 153/153/153 155/155/155
o object_40
usemtl diffuse_0
v 10.000006675720215 2500 5490
v 10.000006675720215 2500 4880
v 620 2500 5490
v 620 2500 4880
vt 0 0
vt 0 1
vt 1 0
vt 1 1
vn 0 1 0
vn 0 1 0
vn 0 1 0
vn 0 1 0
f 160/160/160 158/158/158 157/157/157 159/159/159
o object_41
usemtl diffuse_0
v 150 2500 -9.6694138846942224E-06
v 2550 2500 -9.6694138846942224E-06
v 150 2500 -200.00001525878906
v 2550 2500 -200.00001525878906
vt 0 0
vt 0 1
vt 1 0
vt 1 1
vn 0 -1 0
vn 0 -1 0
vn 0 -1 0
vn 0 -1 0
f 164/164/164 162/162/162 161/161/161 163/163/163
o object_42
usemtl diffuse_0
v 3000 2500 -9.6694138846942224E-06
v 5400 2500 -9.6694138846942224E-06
v 3000 2500 -200.00001525878906
v 5400 2500 -200.00001525878906
vt 0 0
vt 0 1
vt 1 0
vt 1 1
vn 0 -1 0
vn 0 -1 0
vn 0 -1 0
vn 0 -1 0
f 168/168/168 166/166/166 165/165/165 167/167/167
o object_43
usemtl diffuse_0
v 5500 2500 149.99998474121094
v 5500 2500 2550
v 5700 2500 149.99998474121094
v 5700 2500 2550
vt 0 0
vt 0 1
vt 1 0
vt 1 1
vn 0 -1 0
vn 0 -1 0
vn 0 -1 0
vn 0 -1 0
f 172/172/172 170/170/170 169/169/169 171/171/171
o object_44
usemtl diffuse_0
v 5500 2500 3000
v 5500 2500 5400
v 5700 2500 3000
v 5700 2500 5400
vt 0 0
vt 0 1
vt 1 0
vt 1 1
vn 0 -1 0
vn 0 -1 0
vn 0 -1 0
vn 0 -1 0
f 176/176/176 174/174/174 173/173/173 175/175/175
o object_45
usemtl diffuse_0
v 6.718340955558233E-06 2500 5490
v 3.3591704777791165E-06 2500 5495
v 0 2500 5500
v 5500 2500 5490
v 5500 2500 5495
v 5500 2500 5500
vt 0 0
vt 0 0.5
vt 0 1
vt 1 0
vt 1 0.5
vt 1 1
vn 0 -1 0
vn 0 -1 0
vn 0 -1 0
vn 0 -1 0
vn 0 -1 0
vn 0 -1 0
f 181/181/181 178/178/178 177/177/177 180/180/180
f 182/182/182 179/179/179 178/178/178 181/181/181
o object_46
usemtl diffuse_0
v 0 2500 -9.6694138846942224E-06
v 0 2500 5490
v 10.000006675720215 2500 -9.6694138846942224E-06
v 10.000006675720215 2500 5490
vt 0 0
vt 0 1
vt 1 0
vt 1 1
vn 0 -1 0
vn 0 -1 0
vn 0 -1 0
vn 0 -1 0
f 186/186/186 184/184/184 183/183/183 185/185/185
o object_47
usemtl diffuse_0
v 2450.0000067183405 2500 2439.9999903305861
v 3060.000006718341 2500 2439.9999903305861
v 3060.000006718341 2500 1829.9999903305861
v 2450.0000067183405 2500 1829.9999903305861
cstype bspline
deg 1
curv 0 2440 187 188 189 190 187
parm u 0 0 610 1220 1830 2440 2440
end
